<svg width="30" height="30" viewBox="0 0 30 30" fill="none" xmlns="http://www.w3.org/2000/svg">
<path fill-rule="evenodd" clip-rule="evenodd" d="M21.9415 0.261534C19.0881 -0.28267 16.1374 0.0265529 13.4592 1.15051C10.7809 2.27448 8.49426 4.16326 6.8861 6.5803C6.28359 7.48586 5.78639 8.45045 5.40015 9.45537H1.5C0.671573 9.45537 0 10.1269 0 10.9554C0 11.7838 0.671573 12.4554 1.5 12.4554H4.59789C4.47992 13.2071 4.41994 13.97 4.41994 14.7374C4.41994 15.5049 4.47993 16.2678 4.59791 17.0196H1.5C0.671573 17.0196 0 17.6912 0 18.5196C0 19.348 0.671573 20.0196 1.5 20.0196H5.40021C5.78644 21.0245 6.28363 21.989 6.8861 22.8945C8.49426 25.3115 10.7809 27.2003 13.4592 28.3243C16.1374 29.4482 19.0881 29.7575 21.9415 29.2133C24.7948 28.6691 27.4241 27.2956 29.4994 25.2648C30.0915 24.6854 30.1018 23.7357 29.5224 23.1436C28.943 22.5515 27.9933 22.5412 27.4012 23.1206C25.7481 24.7383 23.6533 25.8327 21.3794 26.2664C19.1056 26.7001 16.7541 26.4536 14.6201 25.558C12.486 24.6624 10.6645 23.1577 9.38378 21.2327C9.12341 20.8414 8.88774 20.4362 8.67749 20.0196H19.1724C20.0008 20.0196 20.6724 19.348 20.6724 18.5196C20.6724 17.6912 20.0008 17.0196 19.1724 17.0196H7.64426C7.49577 16.2715 7.41994 15.5073 7.41994 14.7374C7.41994 13.9675 7.49576 13.2034 7.64423 12.4554H19.1724C20.0008 12.4554 20.6724 11.7838 20.6724 10.9554C20.6724 10.1269 20.0008 9.45537 19.1724 9.45537H8.67741C8.88768 9.0387 9.12337 8.63349 9.38378 8.24211C10.6645 6.31714 12.486 4.81238 14.6201 3.91679C16.7541 3.02119 19.1056 2.77473 21.3794 3.20842C23.6533 3.64209 25.7481 4.73654 27.4012 6.35422C27.9933 6.93362 28.943 6.92332 29.5224 6.33122C30.1018 5.73911 30.0915 4.78942 29.4994 4.21002C27.4241 2.17921 24.7948 0.80574 21.9415 0.261534Z" fill="white"/>
</svg>
