<svg id="svg" version="1.1" xmlns="http://www.w3.org/2000/svg" xmlns:xlink="http://www.w3.org/1999/xlink" width="400" height="400" viewBox="0, 0, 400,400"><g id="svgg"><path id="path0" d="M0.000 18.440 L 0.000 36.880 0.875 36.760 C 1.356 36.695,2.275 36.570,2.917 36.482 C 6.574 35.984,14.247 36.131,17.417 36.761 C 20.510 37.375,25.266 39.460,25.639 40.365 C 25.669 40.439,25.762 40.500,25.844 40.500 C 26.414 40.500,29.225 43.575,30.965 46.101 C 31.900 47.457,33.687 50.996,34.660 53.417 C 34.954 54.150,35.260 54.900,35.340 55.083 C 35.419 55.267,35.788 56.354,36.160 57.500 C 36.832 59.572,36.932 59.902,37.330 61.333 C 37.445 61.746,37.596 62.271,37.667 62.500 C 37.737 62.729,37.887 63.254,38.000 63.667 C 38.113 64.079,38.263 64.604,38.333 64.833 C 38.404 65.063,38.554 65.587,38.667 66.000 C 38.780 66.412,38.930 66.938,39.000 67.167 C 39.070 67.396,39.211 67.883,39.312 68.250 C 39.586 69.243,40.450 71.997,41.167 74.167 C 41.516 75.221,42.037 76.871,42.326 77.833 C 42.615 78.796,42.957 79.883,43.087 80.250 C 43.216 80.617,43.444 81.367,43.592 81.917 C 43.741 82.467,43.924 83.142,44.001 83.417 C 44.258 84.347,45.315 88.578,45.500 89.417 C 45.600 89.875,45.749 90.550,45.830 90.917 C 45.969 91.544,46.115 92.361,46.493 94.625 C 46.582 95.152,46.731 96.183,46.825 96.917 C 46.920 97.650,47.072 98.834,47.165 99.548 C 47.387 101.262,47.382 106.402,47.157 108.083 C 46.949 109.633,46.400 112.655,46.173 113.500 C 45.768 115.003,44.932 117.600,44.807 117.742 C 44.730 117.829,44.667 117.996,44.667 118.112 C 44.667 118.336,44.120 119.584,42.925 122.083 C 42.531 122.908,42.092 123.846,41.950 124.167 C 41.568 125.030,40.564 128.126,40.357 129.083 C 40.257 129.542,40.099 130.269,40.005 130.699 C 39.684 132.164,39.793 138.070,40.169 139.563 C 42.373 148.310,53.302 150.227,59.175 142.897 C 60.138 141.695,61.040 139.414,61.478 137.073 C 61.753 135.600,61.716 128.912,61.423 127.167 C 61.136 125.465,60.669 123.288,60.456 122.667 C 60.409 122.529,60.163 121.742,59.909 120.917 C 59.655 120.092,59.020 118.104,58.499 116.500 C 57.977 114.896,57.466 113.283,57.362 112.917 C 56.884 111.227,56.527 109.881,56.454 109.500 C 56.410 109.271,56.260 108.521,56.120 107.833 C 55.980 107.146,55.780 105.983,55.674 105.250 C 55.568 104.517,55.446 103.692,55.402 103.417 C 54.560 98.125,54.960 89.488,56.336 83.250 C 56.417 82.883,56.569 82.171,56.674 81.667 C 56.846 80.845,57.126 79.771,57.695 77.750 C 57.989 76.703,59.163 73.128,59.364 72.667 C 59.463 72.438,59.602 72.100,59.673 71.917 C 59.743 71.733,59.989 71.096,60.220 70.500 C 60.450 69.904,60.875 68.779,61.165 68.000 C 62.859 63.442,64.933 60.241,67.169 58.733 C 70.754 56.313,74.622 56.691,76.106 59.605 C 76.579 60.533,76.746 61.054,77.156 62.865 C 77.256 63.306,77.333 65.492,77.333 67.866 C 77.333 74.927,78.153 76.845,81.167 76.828 C 82.722 76.820,86.273 75.219,88.083 73.709 C 88.879 73.045,90.622 72.417,91.651 72.423 C 94.655 72.440,96.454 74.960,97.775 81.000 C 98.391 83.820,98.662 87.904,98.666 94.417 C 98.668 97.808,98.746 102.008,98.839 103.750 C 98.932 105.492,99.082 108.529,99.171 110.500 C 99.327 113.934,99.454 116.271,99.833 122.667 C 100.571 135.140,100.672 137.558,100.780 145.333 C 100.916 155.147,100.534 161.514,99.319 169.667 C 98.855 172.779,97.617 178.481,96.596 182.208 C 96.239 183.510,95.838 184.962,95.641 185.667 C 95.551 185.987,95.415 186.512,95.338 186.833 C 95.261 187.154,95.015 188.129,94.792 189.000 C 94.569 189.871,94.293 191.033,94.179 191.583 C 94.066 192.133,93.909 192.883,93.831 193.250 C 93.135 196.509,92.973 204.539,93.559 206.750 C 94.120 208.871,95.178 211.491,95.533 211.639 C 95.607 211.669,95.667 211.767,95.667 211.856 C 95.667 212.114,96.913 213.854,97.621 214.583 C 104.272 221.442,113.897 218.658,116.185 209.215 C 116.783 206.747,117.046 199.368,116.667 195.695 C 116.296 192.102,116.137 190.859,115.899 189.667 C 115.761 188.979,115.577 188.042,115.489 187.583 C 115.401 187.125,115.137 185.813,114.903 184.667 C 114.668 183.521,114.407 182.246,114.322 181.833 C 114.179 181.132,114.053 180.582,113.683 179.042 C 113.601 178.698,113.443 178.004,113.333 177.500 C 113.223 176.996,113.073 176.321,113.000 176.000 C 112.927 175.679,112.777 175.004,112.667 174.500 C 112.557 173.996,112.407 173.321,112.333 173.000 C 112.260 172.679,112.110 172.004,112.000 171.500 C 111.890 170.996,111.740 170.321,111.667 170.000 C 111.593 169.679,111.453 169.042,111.354 168.583 C 111.255 168.125,111.020 167.037,110.831 166.167 C 110.536 164.802,109.697 160.614,109.179 157.917 C 109.091 157.458,108.863 156.108,108.672 154.917 C 108.482 153.725,108.217 152.075,108.084 151.250 C 107.687 148.786,107.524 147.342,107.000 141.583 C 106.564 136.803,107.010 128.895,108.087 122.333 C 108.215 121.554,108.400 120.392,108.499 119.750 C 108.786 117.893,109.250 115.153,109.501 113.833 C 109.580 113.421,109.806 112.221,110.004 111.167 C 110.524 108.407,111.302 104.373,111.483 103.500 C 111.569 103.087,111.726 102.263,111.831 101.667 C 111.936 101.071,112.086 100.283,112.164 99.917 C 112.242 99.550,112.388 98.837,112.489 98.333 C 112.707 97.237,113.819 91.695,114.010 90.750 C 114.168 89.969,114.790 87.175,114.993 86.333 C 115.071 86.013,115.220 85.375,115.325 84.917 C 115.786 82.907,117.320 77.294,118.011 75.083 C 118.929 72.150,120.408 67.902,120.665 67.461 C 120.758 67.301,120.833 67.094,120.833 67.000 C 120.833 66.907,120.975 66.512,121.147 66.123 C 121.320 65.735,121.712 64.817,122.018 64.083 C 128.514 48.553,140.422 43.736,148.179 53.500 C 150.976 57.021,154.288 63.918,155.760 69.292 C 156.308 71.292,156.522 72.119,156.654 72.750 C 157.210 75.402,157.392 76.432,157.829 79.374 C 158.269 82.339,158.667 88.183,158.667 91.687 C 158.667 97.467,157.698 110.541,156.834 116.417 C 156.753 116.967,156.601 118.017,156.498 118.750 C 156.307 120.096,156.180 120.828,155.848 122.500 C 155.748 123.004,155.550 124.010,155.409 124.736 C 155.268 125.461,155.117 126.112,155.074 126.181 C 155.031 126.251,154.924 126.670,154.835 127.112 C 154.746 127.555,154.514 128.629,154.318 129.500 C 152.947 135.608,152.744 141.834,153.771 146.248 C 154.747 150.440,160.142 154.050,164.351 153.327 C 168.292 152.651,170.687 149.771,172.108 144.000 C 172.537 142.258,172.551 135.585,172.130 133.583 C 171.976 132.850,171.768 131.762,171.667 131.167 C 171.346 129.260,171.139 128.210,170.667 126.083 C 170.247 124.196,170.136 123.712,169.995 123.167 C 169.912 122.846,169.585 121.533,169.269 120.250 C 168.952 118.967,168.240 116.154,167.687 114.000 C 166.436 109.127,166.600 109.784,166.017 107.333 C 165.041 103.231,164.670 101.271,163.918 96.230 C 163.583 93.980,163.585 89.132,163.924 87.021 C 164.585 82.894,164.942 81.390,166.504 76.167 C 166.792 75.204,167.090 74.192,167.167 73.917 C 167.243 73.642,167.543 72.629,167.833 71.667 C 168.123 70.704,168.430 69.673,168.514 69.375 C 168.598 69.077,168.737 68.590,168.824 68.292 C 168.910 67.994,169.052 67.487,169.137 67.167 C 169.223 66.846,169.405 66.246,169.542 65.833 C 169.678 65.421,169.918 64.657,170.074 64.135 C 171.147 60.553,172.987 60.244,175.390 63.241 C 179.098 67.866,182.371 67.340,184.672 61.750 C 184.837 61.351,185.070 60.199,185.330 58.500 C 185.953 54.426,186.226 53.037,186.768 51.185 C 187.196 49.721,188.780 47.303,189.838 46.500 C 190.139 46.271,190.474 45.997,190.582 45.891 C 191.721 44.772,194.982 43.786,197.583 43.775 C 205.518 43.741,210.330 50.601,208.847 59.833 C 208.737 60.521,208.579 61.496,208.496 62.000 C 207.221 69.796,207.398 75.637,209.020 79.290 C 209.192 79.678,209.333 80.035,209.333 80.083 C 209.333 80.205,211.202 83.232,211.340 83.333 C 211.403 83.379,211.578 83.642,211.730 83.917 C 211.882 84.192,212.263 84.754,212.576 85.167 C 212.889 85.579,213.150 85.978,213.156 86.053 C 213.162 86.128,213.380 86.503,213.641 86.887 C 214.343 87.918,216.500 92.441,216.500 92.882 C 216.500 93.002,216.565 93.171,216.645 93.258 C 216.787 93.412,218.377 98.332,218.664 99.500 C 218.743 99.821,218.922 100.533,219.064 101.083 C 219.946 104.518,220.536 108.649,221.088 115.250 C 221.134 115.800,221.240 123.112,221.325 131.500 C 221.468 145.755,221.558 149.506,221.999 159.500 C 222.441 169.531,222.531 171.904,222.637 176.417 C 222.838 184.992,222.486 191.221,221.329 199.583 C 220.877 202.849,220.477 205.396,219.852 209.000 C 219.346 211.914,219.327 212.012,219.079 213.083 C 218.952 213.633,218.649 215.096,218.406 216.333 C 217.632 220.282,216.629 225.096,216.149 227.167 C 215.465 230.118,215.353 230.634,215.144 231.833 C 213.266 242.600,215.148 250.321,220.555 254.031 C 225.162 257.192,229.607 256.536,233.171 252.171 C 233.581 251.669,234.010 251.157,234.125 251.034 C 234.240 250.910,234.333 250.745,234.333 250.667 C 234.333 250.588,234.430 250.425,234.548 250.304 C 235.567 249.259,237.147 245.131,237.789 241.833 C 238.144 240.008,238.199 231.080,237.866 229.250 C 237.749 228.608,237.572 227.633,237.472 227.083 C 237.066 224.849,236.383 222.520,235.002 218.667 C 234.169 216.344,233.013 212.935,232.826 212.250 C 232.093 209.563,231.683 207.725,231.358 205.667 C 229.595 194.505,229.140 181.669,229.827 162.500 C 230.135 153.931,230.322 147.013,230.413 140.917 C 230.648 125.084,231.365 114.038,232.669 106.167 C 232.752 105.662,232.905 104.725,233.009 104.083 C 233.112 103.442,233.259 102.617,233.335 102.250 C 233.411 101.883,233.560 101.133,233.667 100.583 C 233.904 99.357,234.140 98.272,234.336 97.500 C 234.417 97.179,234.644 96.242,234.839 95.417 C 235.034 94.592,235.253 93.729,235.327 93.500 C 235.401 93.271,235.557 92.746,235.675 92.333 C 236.678 88.803,239.017 82.402,240.364 79.500 C 240.641 78.904,240.933 78.267,241.014 78.083 C 243.579 72.247,247.558 71.105,250.967 75.225 C 251.938 76.399,253.904 80.940,254.693 83.833 C 254.951 84.780,255.118 85.349,255.500 86.583 C 255.698 87.225,255.934 88.013,256.023 88.333 C 256.112 88.654,256.256 89.160,256.343 89.458 C 256.518 90.061,256.672 90.607,257.083 92.083 C 257.560 93.795,259.024 99.549,259.160 100.250 C 259.232 100.617,259.413 101.517,259.563 102.250 C 260.006 104.421,260.412 106.837,260.670 108.833 C 260.770 109.612,260.922 110.745,261.007 111.350 C 261.451 114.510,261.363 120.924,260.824 124.667 C 260.432 127.398,260.346 127.953,260.176 128.875 C 260.079 129.402,259.925 130.246,259.833 130.750 C 259.404 133.114,259.293 133.652,258.751 136.000 C 258.614 136.596,258.343 137.833,258.149 138.750 C 257.956 139.667,257.740 140.679,257.669 141.000 C 257.598 141.321,257.417 142.183,257.267 142.917 C 257.117 143.650,256.926 144.550,256.844 144.917 C 256.761 145.283,256.609 146.033,256.506 146.583 C 256.332 147.512,255.849 149.637,255.503 151.000 C 255.282 151.869,254.732 154.333,254.591 155.083 C 253.975 158.369,253.823 162.810,254.240 165.333 C 255.906 175.407,269.786 178.187,273.904 169.271 C 275.323 166.198,275.363 159.819,274.000 154.042 C 273.538 152.081,273.478 151.857,272.486 148.417 C 271.839 146.170,270.567 141.232,270.167 139.417 C 269.746 137.502,269.682 137.216,269.520 136.500 C 269.254 135.324,268.946 133.700,268.493 131.083 C 268.414 130.625,268.238 129.650,268.102 128.917 C 267.873 127.681,267.717 126.602,267.330 123.583 C 267.171 122.343,266.963 120.273,266.644 116.750 C 266.388 113.912,266.387 103.982,266.644 101.417 C 266.754 100.317,266.920 98.667,267.013 97.750 C 267.301 94.919,267.715 92.054,268.084 90.333 C 268.212 89.737,268.362 88.950,268.417 88.583 C 268.473 88.217,268.630 87.429,268.766 86.833 C 268.903 86.237,269.083 85.450,269.166 85.083 C 269.564 83.331,270.313 80.461,270.802 78.817 C 271.944 74.971,273.012 74.554,275.684 76.907 C 277.877 78.839,281.827 77.999,282.926 75.369 C 283.214 74.680,283.264 70.141,282.996 69.083 C 282.715 67.979,282.476 67.176,281.830 65.167 C 280.569 61.248,280.577 59.699,281.882 55.417 C 285.195 44.538,300.124 38.312,306.945 44.966 C 308.743 46.719,311.040 50.856,315.247 59.917 C 315.875 61.268,316.333 62.323,316.333 62.417 C 316.333 62.464,316.475 62.822,316.648 63.210 C 318.038 66.327,319.704 71.632,320.325 74.917 C 321.095 78.995,321.349 81.356,321.837 89.000 C 322.107 93.235,322.570 99.035,322.914 102.500 C 323.327 106.653,323.707 111.125,323.991 115.167 C 324.085 116.496,324.255 118.746,324.371 120.167 C 324.509 121.869,324.578 126.159,324.574 132.750 C 324.569 142.071,324.504 144.244,323.993 152.000 C 323.719 156.165,323.241 161.414,322.914 163.833 C 322.784 164.796,322.596 166.221,322.496 167.000 C 321.972 171.081,321.166 175.872,320.492 178.917 C 319.908 181.551,319.589 182.904,319.312 183.917 C 319.137 184.558,318.911 185.383,318.811 185.750 C 318.710 186.117,318.570 186.604,318.500 186.833 C 318.430 187.063,318.278 187.588,318.164 188.000 C 318.049 188.412,317.825 189.162,317.667 189.667 C 317.508 190.171,317.282 190.921,317.165 191.333 C 317.048 191.746,316.841 192.421,316.706 192.833 C 316.448 193.620,316.394 193.812,315.858 195.833 C 314.198 202.095,313.842 204.465,313.837 209.293 C 313.826 219.003,317.120 225.152,323.828 227.940 C 324.872 228.374,327.899 228.378,329.083 227.946 C 334.400 226.009,337.502 221.952,338.827 215.200 C 339.054 214.041,339.051 205.392,338.822 204.093 C 338.354 201.428,337.687 198.506,337.165 196.833 C 337.093 196.604,336.870 195.854,336.669 195.167 C 336.469 194.479,336.170 193.504,336.006 193.000 C 335.842 192.496,335.540 191.521,335.336 190.833 C 335.132 190.146,334.830 189.161,334.665 188.644 C 334.248 187.342,333.093 182.610,332.678 180.500 C 331.997 177.040,331.848 176.232,331.681 175.083 C 330.186 164.776,329.884 155.309,330.506 138.167 C 330.600 135.554,330.748 126.067,330.835 117.083 C 330.921 108.100,331.064 99.475,331.152 97.917 C 331.412 93.329,331.857 88.166,332.143 86.417 C 332.233 85.867,332.391 84.779,332.493 84.000 C 332.675 82.617,332.812 81.747,333.181 79.625 C 333.746 76.377,334.123 74.510,335.008 70.583 C 335.173 69.848,335.773 67.535,336.002 66.750 C 336.178 66.145,336.447 65.192,336.649 64.458 C 336.954 63.345,338.358 59.307,338.764 58.375 C 338.894 58.077,339.122 57.552,339.270 57.208 C 344.541 45.014,352.321 40.639,358.573 46.353 C 362.375 49.828,363.411 55.152,363.402 71.167 C 363.398 77.647,363.337 80.007,363.118 82.167 C 362.965 83.679,362.759 85.779,362.660 86.833 C 362.345 90.213,361.866 93.866,361.240 97.667 C 361.097 98.537,360.913 99.662,360.831 100.167 C 360.750 100.671,360.609 101.496,360.518 102.000 C 360.427 102.504,360.307 103.179,360.250 103.500 C 360.193 103.821,360.081 104.383,360.001 104.750 C 359.921 105.117,359.776 105.867,359.679 106.417 C 359.581 106.967,359.382 108.017,359.236 108.750 C 359.091 109.483,358.907 110.496,358.829 111.000 C 358.751 111.504,358.568 112.629,358.423 113.500 C 357.274 120.369,357.105 122.382,357.108 129.167 C 357.113 138.966,357.920 141.328,362.055 143.651 C 366.220 145.990,371.879 144.593,374.481 140.583 C 374.719 140.217,374.955 139.879,375.006 139.833 C 375.163 139.693,376.012 137.872,376.189 137.295 C 377.230 133.920,377.041 127.587,375.761 122.917 C 375.460 121.818,374.574 119.110,374.343 118.583 C 374.263 118.400,373.997 117.725,373.751 117.083 C 373.506 116.442,373.208 115.692,373.089 115.417 C 372.970 115.142,372.777 114.654,372.660 114.333 C 372.543 114.013,372.266 113.337,372.043 112.833 C 371.380 111.326,371.281 111.085,370.751 109.669 C 370.415 108.771,369.797 106.868,369.506 105.833 C 369.390 105.421,369.236 104.896,369.163 104.667 C 368.920 103.895,368.424 101.653,368.178 100.208 C 367.585 96.735,367.418 95.361,367.149 91.732 C 366.835 87.501,367.157 80.062,367.996 72.167 C 368.255 69.730,368.715 65.756,369.000 63.500 C 369.098 62.721,369.256 61.446,369.349 60.667 C 369.443 59.887,369.586 58.725,369.667 58.083 C 370.313 52.933,370.781 48.609,370.931 46.417 C 371.064 44.469,371.314 43.706,372.083 42.911 C 373.984 40.944,378.057 40.575,381.542 42.054 C 381.794 42.161,382.000 42.305,382.000 42.374 C 382.000 42.443,382.098 42.500,382.218 42.500 C 383.047 42.500,385.566 45.287,386.585 47.333 C 387.470 49.109,387.383 48.846,388.025 51.667 C 388.283 52.801,388.273 58.449,388.009 61.167 C 387.649 64.859,387.249 67.908,386.917 69.500 C 386.793 70.096,386.602 71.071,386.493 71.667 C 386.271 72.875,385.741 75.272,385.497 76.167 C 384.770 78.832,384.167 80.838,383.345 83.333 C 381.432 89.138,381.276 90.016,381.365 94.500 C 381.416 97.057,381.493 97.928,381.724 98.583 C 384.217 105.640,391.308 107.764,395.956 102.846 C 399.149 99.466,399.514 94.364,397.327 83.667 C 397.037 82.246,396.657 80.382,396.482 79.525 C 396.308 78.667,396.128 77.906,396.084 77.834 C 396.039 77.761,395.844 76.925,395.651 75.976 C 395.458 75.027,395.156 73.575,394.981 72.750 C 394.806 71.925,394.588 70.875,394.498 70.417 C 394.408 69.958,394.258 69.246,394.165 68.833 C 394.072 68.421,393.922 67.671,393.831 67.167 C 393.741 66.662,393.589 65.837,393.493 65.333 C 393.397 64.829,393.247 63.985,393.159 63.458 C 393.072 62.931,392.922 62.031,392.826 61.458 C 391.520 53.638,391.519 49.582,392.822 45.160 C 393.771 41.941,396.921 40.227,399.708 41.412 C 399.985 41.529,400.000 40.483,400.000 20.768 L 400.000 0.000 200.000 0.000 L 0.000 0.000 0.000 18.440 M17.024 33.337 C 26.083 34.234,31.112 38.392,33.920 47.307 C 34.461 49.025,34.369 49.223,33.729 47.718 C 29.819 38.511,25.320 35.067,15.083 33.445 C 13.152 33.138,14.345 33.072,17.024 33.337 M304.332 38.748 C 308.397 39.829,311.582 43.789,313.416 50.042 C 313.920 51.761,313.896 51.730,312.452 48.792 C 309.180 42.131,305.819 39.471,300.629 39.432 C 298.543 39.416,298.289 39.339,299.292 39.024 C 301.084 38.460,302.882 38.362,304.332 38.748 M383.076 39.139 C 385.163 40.116,387.306 42.831,388.100 45.505 C 388.463 46.727,388.291 46.698,387.701 45.437 C 386.300 42.444,383.992 40.148,381.281 39.051 C 379.934 38.505,379.902 38.444,381.010 38.532 C 381.575 38.577,382.381 38.814,383.076 39.139 M201.583 40.067 C 206.917 41.248,210.400 46.553,210.319 53.373 L 210.305 54.583 209.907 52.750 C 208.067 44.260,202.894 39.849,196.183 41.048 C 195.108 41.240,195.543 40.804,196.790 40.440 C 199.016 39.789,199.990 39.714,201.583 40.067 M356.834 41.347 C 361.102 42.748,363.878 47.512,363.818 53.333 L 363.803 54.750 363.496 53.250 C 361.960 45.740,358.282 41.823,352.715 41.767 C 351.296 41.753,351.045 41.714,351.279 41.542 C 351.436 41.427,351.643 41.329,351.740 41.323 C 351.837 41.317,352.367 41.208,352.917 41.081 C 354.090 40.810,355.488 40.905,356.834 41.347 M143.587 45.480 C 147.328 46.933,151.314 52.085,152.571 57.092 C 152.738 57.761,152.672 57.663,151.663 55.750 C 147.889 48.597,143.342 45.360,137.649 45.771 C 136.270 45.871,136.308 45.681,137.750 45.264 C 139.703 44.699,141.771 44.775,143.587 45.480 M73.033 53.844 C 75.509 54.678,77.140 56.622,77.500 59.164 C 77.719 60.719,77.458 61.385,77.173 59.996 C 76.058 54.563,70.909 52.793,66.526 56.336 C 65.142 57.455,64.998 57.260,66.284 56.008 C 68.438 53.913,70.897 53.125,73.033 53.844 M174.124 58.192 C 174.701 58.548,176.167 60.366,176.167 60.724 C 176.167 60.827,175.813 60.506,175.380 60.012 C 174.432 58.928,173.285 58.168,172.592 58.164 C 172.202 58.162,172.142 58.124,172.333 58.000 C 172.749 57.731,173.511 57.813,174.124 58.192 M95.135 69.144 C 96.378 70.029,97.174 72.198,97.843 76.524 C 98.119 78.311,97.955 78.513,97.598 76.824 C 96.425 71.263,95.162 69.583,92.153 69.583 C 90.281 69.583,90.272 69.580,91.125 69.217 C 92.679 68.554,94.267 68.526,95.135 69.144 M249.935 69.526 C 251.664 70.339,253.094 73.056,254.306 77.833 C 255.260 81.592,255.208 82.147,254.183 79.154 C 251.679 71.848,249.697 69.480,246.445 69.907 C 245.457 70.037,245.521 69.823,246.587 69.433 C 247.599 69.063,249.034 69.103,249.935 69.526 M274.956 72.163 C 275.455 72.468,277.000 74.364,277.000 74.673 C 277.000 74.747,276.578 74.366,276.063 73.826 C 275.097 72.813,274.034 72.169,273.322 72.164 C 272.999 72.162,272.968 72.129,273.167 72.000 C 273.573 71.737,274.378 71.811,274.956 72.163 M382.507 94.696 C 383.497 99.137,385.769 102.460,388.417 103.340 L 389.083 103.562 388.500 103.693 C 385.486 104.370,382.990 101.336,382.244 96.086 C 381.813 93.058,381.964 92.261,382.507 94.696 M358.073 130.956 C 358.952 137.195,361.284 141.731,364.375 143.217 C 365.594 143.802,365.581 143.904,364.305 143.760 C 360.515 143.331,358.136 139.043,357.748 131.940 C 357.640 129.950,357.844 129.330,358.073 130.956 M40.835 132.968 C 40.837 133.531,41.510 136.190,42.091 137.930 C 43.197 141.241,45.037 143.683,47.233 144.752 L 48.417 145.328 47.417 145.329 C 44.073 145.333,41.649 141.893,40.754 135.876 C 40.460 133.900,40.419 132.263,40.667 132.417 C 40.758 132.473,40.834 132.721,40.835 132.968 M154.420 138.575 C 155.154 144.253,157.741 149.140,160.736 150.509 C 162.406 151.273,160.735 151.354,158.924 150.597 C 156.171 149.447,153.991 143.978,154.003 138.250 C 154.005 137.076,154.251 137.267,154.420 138.575 M255.813 163.250 C 256.963 168.044,258.798 171.048,261.340 172.297 C 262.448 172.842,262.354 173.034,261.078 172.828 C 257.473 172.246,255.112 167.845,254.913 161.336 L 254.844 159.083 255.089 160.167 C 255.223 160.762,255.549 162.150,255.813 163.250 M94.834 205.750 C 96.780 211.152,99.559 214.642,102.500 215.378 C 103.533 215.636,103.652 215.790,102.926 215.926 C 99.175 216.630,95.600 212.267,94.244 205.333 C 93.957 203.862,93.959 203.889,94.147 204.092 C 94.228 204.179,94.537 204.925,94.834 205.750 M315.828 215.500 C 317.940 221.197,320.533 224.374,323.728 225.178 C 324.762 225.439,324.547 225.667,323.265 225.667 C 319.709 225.667,317.074 222.447,315.490 216.167 C 315.155 214.839,314.904 213.361,315.037 213.500 C 315.081 213.546,315.437 214.446,315.828 215.500 M216.371 243.083 C 218.269 249.150,221.310 252.949,224.908 253.747 C 225.640 253.910,225.119 254.161,224.043 254.164 C 220.580 254.174,217.512 250.256,216.184 244.124 C 215.676 241.780,215.781 241.197,216.371 243.083 " stroke="none" fill="#b47c0c" fill-rule="evenodd"></path><path id="path1" d="M16.917 33.670 C 25.189 35.200,30.210 39.073,33.177 46.212 C 33.834 47.792,33.975 47.805,33.437 46.236 C 30.799 38.538,26.074 34.613,18.200 33.580 C 15.625 33.243,14.885 33.294,16.917 33.670 M380.684 38.573 C 380.726 38.615,381.368 38.954,382.111 39.325 C 384.229 40.385,386.274 42.429,387.414 44.625 C 387.963 45.682,388.070 45.739,387.738 44.800 C 386.821 42.201,384.529 39.683,382.410 38.947 C 381.683 38.695,380.563 38.452,380.684 38.573 M299.917 38.975 L 298.917 39.250 301.000 39.350 C 306.083 39.594,309.218 42.071,312.370 48.331 C 313.216 50.013,313.628 50.588,313.181 49.466 C 313.097 49.256,312.782 48.446,312.482 47.667 C 309.807 40.739,305.168 37.530,299.917 38.975 M197.539 40.336 C 195.621 40.838,195.709 40.916,198.222 40.931 C 204.120 40.968,207.803 44.336,209.690 51.417 L 210.179 53.250 210.104 51.917 C 209.649 43.840,204.008 38.641,197.539 40.336 M352.628 41.233 C 351.230 41.534,351.273 41.667,352.767 41.667 C 358.021 41.667,362.028 45.720,363.416 52.439 C 363.758 54.097,363.807 54.128,363.716 52.631 C 363.247 44.845,358.505 39.970,352.628 41.233 M138.009 45.266 C 136.691 45.620,136.760 45.667,138.612 45.667 C 143.874 45.667,148.055 48.787,151.568 55.333 C 152.500 57.072,152.518 57.008,151.675 54.938 C 148.662 47.532,143.409 43.814,138.009 45.266 M69.464 54.058 C 68.167 54.603,67.048 55.344,66.250 56.186 L 65.583 56.889 66.583 56.120 C 71.011 52.716,76.022 54.528,77.312 60.000 C 77.485 60.735,77.487 60.728,77.420 59.656 C 77.161 55.516,72.985 52.578,69.464 54.058 M172.695 57.975 C 172.542 58.075,172.680 58.153,173.139 58.226 C 173.624 58.304,174.070 58.571,174.775 59.208 L 175.744 60.083 175.194 59.378 C 174.306 58.240,173.221 57.631,172.695 57.975 M92.500 68.832 C 90.878 69.240,90.799 69.416,92.233 69.425 C 94.909 69.443,95.998 70.583,97.109 74.538 C 97.657 76.489,97.803 76.533,97.426 74.636 C 96.495 69.940,95.017 68.200,92.500 68.832 M247.009 69.426 C 245.754 69.772,245.769 69.833,247.106 69.833 C 250.076 69.833,251.736 71.950,254.231 78.917 C 254.742 80.345,254.768 80.187,254.327 78.333 C 252.645 71.261,250.375 68.498,247.009 69.426 M273.603 71.968 C 273.548 72.057,273.762 72.179,274.078 72.238 C 274.439 72.306,275.014 72.670,275.618 73.215 C 276.422 73.938,276.511 73.986,276.148 73.503 C 275.318 72.398,273.875 71.528,273.603 71.968 M382.185 94.583 C 382.028 99.308,384.831 103.696,387.979 103.657 L 388.750 103.647 387.881 103.252 C 385.444 102.145,383.404 99.001,382.364 94.750 C 382.215 94.138,382.200 94.124,382.185 94.583 M357.911 132.500 C 358.217 138.833,360.706 143.296,364.108 143.611 L 365.083 143.701 364.238 143.267 C 361.376 141.798,359.482 138.452,358.240 132.672 L 357.827 130.750 357.911 132.500 M40.748 134.667 C 41.103 140.532,43.767 144.923,47.177 145.266 L 48.083 145.357 47.006 144.761 C 44.204 143.210,42.546 140.477,41.144 135.097 L 40.663 133.250 40.748 134.667 M154.178 139.030 C 154.105 145.307,156.927 150.517,160.620 150.927 L 161.417 151.015 160.418 150.484 C 157.671 149.025,155.742 145.538,154.570 139.917 C 154.204 138.156,154.188 138.121,154.178 139.030 M254.846 160.168 C 254.702 166.606,257.587 172.336,261.184 172.753 L 262.083 172.858 261.167 172.338 C 258.358 170.746,256.475 167.373,255.406 162.017 C 254.915 159.559,254.864 159.389,254.846 160.168 M94.251 204.917 C 95.880 212.251,98.501 215.822,102.250 215.817 L 103.250 215.816 102.204 215.428 C 99.149 214.292,96.827 211.367,94.921 206.250 C 94.264 204.486,94.069 204.098,94.251 204.917 M315.172 214.197 C 315.157 214.515,315.698 216.751,316.091 218.000 C 317.669 223.011,320.799 226.132,323.671 225.557 C 324.146 225.463,324.114 225.436,323.125 225.103 C 320.199 224.119,317.864 221.140,315.830 215.798 C 315.471 214.855,315.175 214.135,315.172 214.197 M216.009 242.750 C 216.005 242.842,216.220 243.794,216.486 244.867 C 217.998 250.963,221.224 254.592,224.611 254.009 L 225.250 253.899 224.667 253.781 C 221.448 253.133,218.880 250.035,216.560 244.000 C 216.260 243.221,216.012 242.658,216.009 242.750 " stroke="none" fill="#fbfaf9" fill-rule="evenodd"></path><path id="path2" d="M14.702 33.358 C 15.006 33.470,15.251 33.467,15.452 33.350 C 15.689 33.212,15.597 33.178,15.000 33.185 C 14.308 33.192,14.285 33.206,14.702 33.358 M301.958 38.618 C 302.165 38.657,302.502 38.657,302.708 38.618 C 302.915 38.578,302.746 38.545,302.333 38.545 C 301.921 38.545,301.752 38.578,301.958 38.618 M359.417 44.500 C 359.775 44.867,360.105 45.167,360.151 45.167 C 360.197 45.167,359.941 44.867,359.583 44.500 C 359.225 44.133,358.895 43.833,358.849 43.833 C 358.803 43.833,359.059 44.133,359.417 44.500 M140.044 44.953 C 140.297 44.991,140.672 44.990,140.877 44.951 C 141.082 44.911,140.875 44.880,140.417 44.881 C 139.958 44.882,139.791 44.915,140.044 44.953 M136.960 45.785 C 137.168 45.824,137.468 45.823,137.627 45.781 C 137.786 45.739,137.617 45.707,137.250 45.709 C 136.883 45.711,136.753 45.745,136.960 45.785 M313.286 50.503 C 313.415 50.996,313.632 51.060,313.540 50.578 C 313.497 50.352,313.402 50.167,313.330 50.167 C 313.257 50.167,313.237 50.318,313.286 50.503 M363.663 52.701 C 363.618 53.132,363.644 53.423,363.719 53.348 C 363.794 53.272,363.831 52.919,363.800 52.564 L 363.743 51.917 363.663 52.701 M210.120 52.948 C 210.073 53.195,210.097 53.551,210.173 53.740 C 210.277 53.997,210.315 53.885,210.323 53.292 C 210.335 52.410,210.250 52.267,210.120 52.948 M66.183 56.066 C 65.963 56.300,65.877 56.508,65.976 56.568 C 66.068 56.625,66.191 56.596,66.248 56.503 C 66.306 56.410,66.299 56.333,66.234 56.333 C 66.169 56.333,66.251 56.183,66.417 56.000 C 66.846 55.526,66.635 55.585,66.183 56.066 M91.318 69.385 C 91.392 69.459,91.820 69.496,92.268 69.466 L 93.083 69.411 92.133 69.331 C 91.610 69.286,91.243 69.311,91.318 69.385 M154.019 138.167 C 154.028 138.859,154.040 138.879,154.174 138.431 C 154.260 138.144,154.256 137.837,154.165 137.681 C 154.054 137.492,154.013 137.630,154.019 138.167 M364.667 143.667 L 364.250 143.800 364.708 143.817 C 364.960 143.826,365.167 143.758,365.167 143.667 C 365.167 143.575,365.148 143.507,365.125 143.517 C 365.102 143.526,364.896 143.593,364.667 143.667 M158.167 148.719 C 158.167 148.748,158.410 148.991,158.708 149.260 L 159.250 149.750 158.760 149.208 C 158.304 148.703,158.167 148.590,158.167 148.719 M157.000 149.052 C 157.000 149.081,157.244 149.325,157.542 149.594 L 158.083 150.083 157.594 149.542 C 157.138 149.037,157.000 148.923,157.000 149.052 M101.875 215.948 C 102.035 215.990,102.298 215.990,102.458 215.948 C 102.619 215.906,102.487 215.872,102.167 215.872 C 101.846 215.872,101.715 215.906,101.875 215.948 M220.833 251.583 C 221.144 251.904,221.436 252.167,221.482 252.167 C 221.528 252.167,221.311 251.904,221.000 251.583 C 220.689 251.262,220.397 251.000,220.351 251.000 C 220.305 251.000,220.522 251.262,220.833 251.583 " stroke="none" fill="#d3b473" fill-rule="evenodd"></path><path id="path3" d="M28.583 39.333 C 28.941 39.700,29.272 40.000,29.318 40.000 C 29.363 40.000,29.108 39.700,28.750 39.333 C 28.392 38.967,28.062 38.667,28.016 38.667 C 27.970 38.667,28.225 38.967,28.583 39.333 M298.667 39.362 C 298.667 39.438,298.892 39.500,299.167 39.500 C 299.442 39.500,299.667 39.471,299.667 39.436 C 299.667 39.400,299.442 39.338,299.167 39.298 C 298.892 39.257,298.667 39.286,298.667 39.362 M199.461 39.954 C 199.761 39.991,200.211 39.990,200.461 39.952 C 200.712 39.914,200.467 39.884,199.917 39.885 C 199.367 39.886,199.162 39.917,199.461 39.954 M354.042 40.948 C 354.202 40.990,354.465 40.990,354.625 40.948 C 354.785 40.906,354.654 40.872,354.333 40.872 C 354.012 40.872,353.881 40.906,354.042 40.948 M147.167 49.417 C 147.478 49.737,147.770 50.000,147.815 50.000 C 147.861 50.000,147.644 49.737,147.333 49.417 C 147.022 49.096,146.730 48.833,146.685 48.833 C 146.639 48.833,146.856 49.096,147.167 49.417 M357.667 130.407 C 357.667 130.918,357.762 130.959,357.882 130.500 C 357.930 130.317,357.901 130.125,357.818 130.074 C 357.735 130.022,357.667 130.172,357.667 130.407 M40.500 132.667 C 40.500 132.978,40.544 133.022,40.700 132.867 C 40.856 132.711,40.856 132.622,40.700 132.467 C 40.544 132.311,40.500 132.356,40.500 132.667 M40.542 134.083 C 40.544 134.450,40.578 134.580,40.618 134.373 C 40.658 134.166,40.656 133.866,40.615 133.706 C 40.573 133.547,40.540 133.717,40.542 134.083 M161.083 151.000 L 160.583 151.127 161.032 151.147 C 161.279 151.158,161.527 151.092,161.583 151.000 C 161.640 150.908,161.663 150.842,161.635 150.853 C 161.607 150.864,161.358 150.930,161.083 151.000 M318.667 223.385 C 318.667 223.414,318.910 223.658,319.208 223.927 L 319.750 224.417 319.260 223.875 C 318.804 223.370,318.667 223.257,318.667 223.385 " stroke="none" fill="#c49b43" fill-rule="evenodd"></path><path id="path4" d="" stroke="none" fill="#c4a44c" fill-rule="evenodd"></path></g></svg>